<?xml version="1.0" encoding="UTF-8" standalone="no"?>
<!DOCTYPE svg PUBLIC "-//W3C//DTD SVG 1.1//EN" "http://www.w3.org/Graphics/SVG/1.1/DTD/svg11.dtd">
<svg version="1.1" xmlns="http://www.w3.org/2000/svg" xmlns:xlink="http://www.w3.org/1999/xlink" preserveAspectRatio="xMidYMid meet" viewBox="0 0 26 26" width="26" height="26"><defs><path d="M373.75 377.73C372.02 377.73 358.15 377.73 356.42 377.73C353.9 377.73 351.86 375.68 351.86 373.14C351.86 371.54 351.86 358.75 351.86 357.16C351.86 354.63 353.9 352.57 356.42 352.57C358.15 352.57 372.02 352.57 373.75 352.57C376.27 352.57 378.31 354.62 378.31 357.16C378.31 358.22 378.31 363.55 378.31 373.14C376.95 376.2 375.43 377.73 373.75 377.73Z" id="a2ei98ojmU"></path><path d="M368 364.91L368 364.91L363.24 362.44L363.24 362.44L368 364.91Z" id="a74evIDVm"></path><path d="M373.17 370.41C372.48 371.14 371.72 371.14 371.38 371.17C368.88 371.35 365.1 371.37 365.1 371.37C365.1 371.37 360.44 371.33 359.02 371.19C358.63 371.11 357.73 371.14 357.05 370.41C356.52 369.87 356.34 368.62 356.34 368.62C356.34 368.62 356.17 367.16 356.17 365.7C356.17 365.56 356.17 364.47 356.17 364.33C356.17 362.87 356.34 361.41 356.34 361.41C356.34 361.41 356.52 360.17 357.05 359.62C357.74 358.9 358.5 358.9 358.84 358.86C361.35 358.68 365.1 358.68 365.1 358.68C365.11 358.68 365.12 358.68 365.12 358.68C365.12 358.68 368.88 358.68 371.38 358.86C371.73 358.9 372.5 358.91 373.17 359.62C373.7 360.17 373.88 361.41 373.88 361.41C373.88 361.41 374.06 362.87 374.06 364.33C374.06 364.47 374.06 365.56 374.06 365.7C374.06 367.16 373.88 368.62 373.88 368.62C373.88 368.62 373.88 368.62 373.88 368.62C373.76 369.45 373.52 370.05 373.17 370.41ZM363.24 367.52L368 364.93L363.24 362.44L363.24 362.44L363.24 367.52Z" id="a2w3K9Gapp"></path><path d="M346.37 377.73C344.15 377.73 326.32 377.73 324.09 377.73C323.3 377.73 322.65 377.08 322.65 376.29C322.65 374.06 322.65 356.23 322.65 354.01C322.65 353.22 323.3 352.57 324.09 352.57C326.32 352.57 344.15 352.57 346.37 352.57C347.16 352.57 347.81 353.22 347.81 354.01C347.81 355.49 347.81 362.92 347.81 376.29C347.38 377.25 346.9 377.73 346.37 377.73Z" id="aEyzOQd4U"></path><path d="M341.77 360.57C342.48 360.14 343.02 359.47 343.29 358.65C342.62 359.05 341.88 359.34 341.09 359.49C340.46 358.82 339.57 358.4 338.57 358.4C336.66 358.4 335.11 359.95 335.11 361.85C335.11 362.12 335.14 362.39 335.2 362.64C332.33 362.5 329.78 361.12 328.08 359.03C327.78 359.54 327.61 360.14 327.61 360.77C327.61 361.97 328.22 363.03 329.14 363.66C328.57 363.63 328.04 363.48 327.58 363.23C327.58 363.24 327.58 363.25 327.58 363.26C327.58 364.94 328.77 366.34 330.35 366.65C330.06 366.73 329.75 366.78 329.43 366.78C329.22 366.78 328.99 366.76 328.79 366.72C329.23 368.09 330.5 369.09 332.01 369.12C330.83 370.04 329.35 370.6 327.72 370.6C327.44 370.6 327.16 370.59 326.9 370.55C328.42 371.53 330.25 372.1 332.19 372.1C338.55 372.1 342.03 366.83 342.03 362.26C342.03 362.11 342.03 361.96 342.02 361.82C342.69 361.33 343.28 360.72 343.75 360.03C343.12 360.3 342.46 360.48 341.77 360.57Z" id="bsT9LtFuq"></path><path d="M289.32 376.36C289.32 374.12 289.32 356.22 289.32 353.98C289.32 353.22 288.7 352.6 287.94 352.6C285.7 352.6 267.8 352.6 265.56 352.6C264.8 352.6 264.18 353.22 264.18 353.98C264.18 356.22 264.18 374.12 264.18 376.36C264.18 377.12 264.8 377.74 265.56 377.74C267.05 377.74 274.51 377.74 287.94 377.74C288.86 377.32 289.32 376.86 289.32 376.36Z" id="frqsOPBXt"></path><path d="M281.59 368.04L284.86 368.04L285.36 364.23L281.59 364.23C281.59 362.77 281.59 361.96 281.59 361.8C281.59 360.7 281.89 359.95 283.48 359.95C283.61 359.95 284.29 359.95 285.5 359.95C285.5 357.91 285.5 356.77 285.5 356.55C285.16 356.5 283.95 356.39 282.57 356.39C279.66 356.39 277.66 358.17 277.66 361.42C277.66 361.61 277.66 362.54 277.66 364.23L274.37 364.23L274.37 368.04L277.66 368.04L277.66 377.82L281.59 377.82L281.59 368.04Z" id="bdp04uycn"></path><path d="M13.56 2.84C16.91 2.84 17.32 2.85 18.64 2.92C19.87 2.97 20.53 3.18 20.97 3.35C21.56 3.58 21.98 3.85 22.42 4.29C22.87 4.73 23.13 5.15 23.36 5.74C23.54 6.18 23.74 6.84 23.79 8.07C23.86 9.39 23.87 9.8 23.87 13.15C23.87 16.51 23.86 16.91 23.79 18.23C23.74 19.45 23.53 20.12 23.36 20.57C23.13 21.15 22.87 21.57 22.42 22.02C21.98 22.46 21.56 22.73 20.97 22.96C20.53 23.13 19.87 23.34 18.64 23.39C17.32 23.45 16.91 23.46 13.56 23.46C10.21 23.46 9.8 23.45 8.48 23.39C7.26 23.34 6.59 23.12 6.14 22.96C5.56 22.73 5.14 22.46 4.7 22.02C4.25 21.57 3.98 21.15 3.76 20.57C3.58 20.12 3.37 19.46 3.32 18.23C3.26 16.91 3.25 16.51 3.25 13.15C3.25 9.8 3.26 9.39 3.32 8.07C3.37 6.85 3.59 6.18 3.76 5.74C3.98 5.15 4.25 4.73 4.7 4.29C5.14 3.85 5.56 3.58 6.14 3.35C6.59 3.17 7.25 2.97 8.48 2.92C9.8 2.85 10.19 2.84 13.56 2.84M8.38 0.66C7.04 0.72 6.13 0.94 5.33 1.24C4.5 1.56 3.81 1.99 3.11 2.69C2.41 3.39 1.98 4.09 1.66 4.91C1.36 5.71 1.14 6.63 1.08 7.96C1.01 9.31 1 9.72 1 13.14C1 16.56 1.01 16.99 1.08 18.32C1.14 19.65 1.36 20.57 1.66 21.37C1.98 22.19 2.41 22.89 3.11 23.59C3.81 24.29 4.5 24.72 5.33 25.04C6.13 25.34 7.04 25.56 8.38 25.62C9.72 25.69 10.14 25.7 13.56 25.7C16.97 25.7 17.41 25.69 18.74 25.62C20.07 25.56 20.99 25.34 21.79 25.04C22.61 24.72 23.31 24.29 24.01 23.59C24.71 22.89 25.14 22.19 25.46 21.37C25.76 20.57 25.98 19.65 26.04 18.32C26.1 16.98 26.12 16.56 26.12 13.14C26.12 9.72 26.1 9.29 26.04 7.96C25.98 6.63 25.76 5.71 25.46 4.91C25.14 4.09 24.71 3.39 24.01 2.69C23.31 1.99 22.61 1.56 21.79 1.24C20.99 0.94 20.07 0.72 18.74 0.66C17.39 0.59 16.97 0.58 13.56 0.58C13.56 0.58 13.56 0.58 13.56 0.58C10.99 0.59 9.27 0.62 8.38 0.66Z" id="a1t0d7isAh"></path><path d="M7.37 13.43C7.37 16.99 10.27 19.88 13.82 19.88C17.39 19.88 20.27 16.99 20.27 13.43C20.27 9.87 17.38 6.98 13.82 6.98C10.25 6.98 7.37 9.87 7.37 13.43ZM9.63 13.43C9.63 11.12 11.51 9.24 13.82 9.24C16.13 9.24 18.01 11.12 18.01 13.43C18.01 15.74 16.13 17.62 13.82 17.62C11.51 17.62 9.63 15.74 9.63 13.43Z" id="a78n6jw8hF"></path><path d="M19.79 4.58C18.95 4.58 18.27 5.26 18.27 6.09C18.27 6.93 18.95 7.6 19.79 7.6C20.62 7.6 21.3 6.93 21.3 6.09C21.3 5.26 20.62 4.58 19.79 4.58Z" id="dUkE47zFU"></path><path d="M101.37 296.6L114.69 243.17C127.96 243.17 135.33 243.17 136.8 243.17C142.79 243.17 147.01 244.74 149.42 247.85C151.83 250.96 152.33 255.35 150.92 261.03C149.51 266.69 146.82 271.09 142.86 274.21C138.9 277.32 133.9 278.88 127.91 278.88C127.36 278.88 124.62 278.88 119.7 278.88L115.26 296.6L101.37 296.6ZM127.07 267.68C132.18 267.68 135.28 265.46 136.38 261.02C137.49 256.57 135.49 254.35 130.39 254.35C130.08 254.35 128.54 254.35 125.78 254.35L122.46 267.68C125.23 267.68 126.77 267.68 127.07 267.68Z" id="a3wU1DLoM"></path><path d="M169.38 272.23C168.99 273.79 168.66 275.38 168.37 277.02C168.08 278.64 168.06 280.13 168.33 281.45C168.6 282.77 169.26 283.85 170.32 284.67C171.39 285.5 173.08 285.92 175.4 285.92C177.71 285.92 179.61 285.51 181.07 284.67C182.53 283.85 183.72 282.77 184.67 281.45C185.61 280.13 186.35 278.65 186.87 277.02C187.39 275.39 187.85 273.79 188.24 272.23C188.72 270.29 191.14 260.61 195.48 243.17L209.3 243.17C204.66 261.75 202.09 272.07 201.57 274.13C199.5 282.45 196.09 288.52 191.33 292.34C186.57 296.17 180.24 298.08 172.36 298.08C164.47 298.08 159.09 296.17 156.22 292.34C153.35 288.52 152.94 282.45 155.02 274.13C155.54 272.07 158.11 261.75 162.74 243.17L176.62 243.17C172.28 260.61 169.87 270.29 169.38 272.23Z" id="eJxrqEFwC"></path><path d="M244.06 255.15C241.98 255.15 239.96 255.53 238.01 256.28C236.05 257.04 234.26 258.06 232.66 259.37C231.06 260.66 229.68 262.21 228.5 264.01C227.31 265.8 226.46 267.75 225.94 269.83C225.41 271.95 225.3 273.92 225.57 275.71C225.85 277.5 226.49 279.06 227.45 280.38C228.42 281.7 229.69 282.74 231.25 283.49C232.81 284.25 234.6 284.62 236.63 284.62C241.08 284.62 245.54 282.73 250.02 278.96C249.75 280.06 248.38 285.54 245.92 295.4C245 295.7 244.48 295.87 244.38 295.9C242.07 296.66 239.95 297.21 238.02 297.56C236.09 297.92 234.22 298.1 232.43 298.1C228.75 298.1 225.4 297.4 222.36 296C219.33 294.6 216.84 292.65 214.9 290.12C212.95 287.59 211.63 284.6 210.93 281.12C210.23 277.65 210.41 273.85 211.43 269.75C212.46 265.64 214.16 261.88 216.55 258.45C218.93 255.02 221.73 252.08 224.91 249.6C228.11 247.12 231.58 245.18 235.33 243.78C239.07 242.39 242.82 241.69 246.55 241.69C248.67 241.69 250.72 241.92 252.66 242.36C254.6 242.81 256.6 243.5 258.63 244.46C258.35 245.56 256.98 251.09 254.5 261.03C250.69 257.11 247.21 255.15 244.06 255.15Z" id="f6zIeJMMk6"></path><path d="M300.83 243.17L317.97 243.17L290.48 268.47L306.63 296.6L288.63 296.6L276.34 273.42L270.57 296.6L256.67 296.6L269.99 243.17L283.89 243.17L278.4 265.21L300.83 243.17Z" id="e5GcWnotKw"></path><path d="M354.93 263.78L360.08 243.16L373.97 243.16L360.63 296.6L346.74 296.6L352.24 274.57L332.19 274.57L326.69 296.6L312.8 296.6L326.12 243.17L340.01 243.17L334.88 263.78L354.93 263.78Z" id="a2bKY4WHHO"></path><path d="M391.81 272.23C391.42 273.79 391.09 275.38 390.79 277.02C390.5 278.64 390.49 280.13 390.76 281.45C391.02 282.77 391.68 283.85 392.75 284.67C393.82 285.5 395.52 285.92 397.83 285.92C400.14 285.92 402.03 285.51 403.49 284.67C404.95 283.85 406.15 282.77 407.1 281.45C408.04 280.13 408.77 278.65 409.3 277.02C409.82 275.39 410.27 273.79 410.67 272.23C411.15 270.29 413.56 260.61 417.9 243.17L431.72 243.17C427.09 261.75 424.51 272.07 424 274.13C421.93 282.45 418.51 288.52 413.75 292.34C408.99 296.17 402.67 298.08 394.78 298.08C386.9 298.08 381.51 296.17 378.64 292.34C375.77 288.52 375.37 282.45 377.43 274.13C377.95 272.07 380.52 261.75 385.16 243.17L399.05 243.17C394.7 260.61 392.29 270.29 391.81 272.23Z" id="a1IkXZfVYy"></path><path d="M442.91 243.17L456.8 243.17L474.31 275.83L482.45 243.17L496.27 243.17L482.95 296.6L469.13 296.6L451.62 263.94L443.48 296.6L429.59 296.6L442.91 243.17Z" id="h2S9DV5zN5"></path><path d="M514.4 296.6L500.51 296.6L510.9 254.93L499.48 254.93L502.41 243.17L539.12 243.17L536.19 254.93L524.79 254.93L514.4 296.6Z" id="c1Mxnof4j"></path><path d="M107.06 318.58L103.87 323.07L100.86 323.07L114.93 303.39L118.87 323.07L115.81 323.07L114.98 318.58L107.06 318.58ZM113.32 309.65L108.88 315.95L114.5 315.95L113.32 309.65Z" id="a2D975C8mg"></path><path d="M163.09 313.43C162.99 313.8 162.94 314 162.93 314.04C162.59 315.44 162.12 316.67 161.52 317.74C160.95 318.73 160.19 319.66 159.21 320.52C157.02 322.45 154.58 323.43 151.92 323.43C149.33 323.43 147.35 322.49 145.97 320.62C144.6 318.74 144.23 316.48 144.89 313.85C145.56 311.16 147.06 308.89 149.41 307.02C151.76 305.14 154.27 304.2 156.98 304.2C158.43 304.2 159.71 304.5 160.81 305.09C161.87 305.69 162.81 306.64 163.63 307.97C163.39 308.17 161.41 309.69 161.17 309.88C160.15 307.86 158.55 306.84 156.37 306.84C154.41 306.84 152.6 307.52 150.93 308.88C149.27 310.21 148.19 311.87 147.7 313.87C147.17 315.94 147.49 317.63 148.65 318.96C149.73 320.2 151.07 320.81 152.69 320.81C154.06 320.81 155.42 320.34 156.74 319.42C158.07 318.48 158.96 317.36 159.42 316.06C159.11 316.06 157.57 316.06 154.79 316.06L155.43 313.43L163.09 313.43Z" id="b1rNhT1GqP"></path><path d="M174.79 318.58L171.61 323.07L168.6 323.07L182.67 303.39L186.6 323.07L183.54 323.07L182.72 318.58L174.79 318.58ZM181.05 309.65L176.61 315.95L182.23 315.95L181.05 309.65Z" id="e9CaNkgiw"></path><path d="M204.51 303.16L207.28 317.56L217.45 303.16L215.99 323.07L213.12 323.07L214.12 311.9L205.64 323.92L203.31 311.89L198.54 323.07L195.64 323.07L204.51 303.16Z" id="b3EXz2d8c"></path><path d="M234.03 307.17L232.93 311.62L240.14 311.62L239.48 314.25L232.27 314.25L230.72 320.43L238.15 320.43L237.49 323.06L227.26 323.06L231.89 304.55L242.11 304.55L241.46 307.17L234.03 307.17Z" id="ee58OS0Ax"></path><path d="M269.43 307.01C271.81 305.14 274.32 304.2 276.99 304.2C279.63 304.2 281.66 305.14 283.07 307.03C284.5 308.93 284.88 311.19 284.22 313.84C283.56 316.51 282.03 318.77 279.67 320.62C277.3 322.49 274.76 323.42 272.05 323.42C269.66 323.42 267.72 322.59 266.23 320.94C264.6 319.1 264.15 316.7 264.89 313.73C265.54 311.12 267.05 308.88 269.43 307.01ZM268.5 318.82C269.54 320.14 270.95 320.8 272.74 320.8C274.68 320.8 276.48 320.13 278.16 318.78C279.83 317.42 280.91 315.77 281.4 313.82C281.89 311.85 281.64 310.18 280.66 308.85C279.68 307.5 278.22 306.83 276.29 306.83C274.36 306.83 272.57 307.5 270.91 308.85C269.26 310.17 268.19 311.81 267.7 313.77C267.19 315.81 267.45 317.5 268.5 318.82Z" id="k23xqdjDBb"></path><path d="M299.56 307.17L298.45 311.62L304.67 311.62L304.01 314.25L297.79 314.25L295.59 323.06L292.8 323.06L297.42 304.55L306.67 304.55L306.01 307.17L299.56 307.17Z" id="egWgFuIvG"></path><path d="M331.68 318.58L328.5 323.07L325.49 323.07L339.56 303.39L343.49 323.07L340.43 323.07L339.61 318.58L331.68 318.58ZM337.94 309.65L333.5 315.95L339.12 315.95L337.94 309.65Z" id="a5DGYvMVh"></path><path d="M369.54 308.86C368.25 307.52 366.76 306.83 365.03 306.83C363.12 306.83 361.35 307.52 359.71 308.89C358.06 310.25 356.99 311.91 356.5 313.88C356.01 315.82 356.25 317.46 357.23 318.79C358.21 320.13 359.64 320.8 361.55 320.8C362.53 320.8 363.4 320.63 364.18 320.32C364.6 320.15 365.05 319.94 365.54 319.67C366.02 319.4 366.53 319.07 367.09 318.68C367 319.02 366.33 321.71 366.25 322.04C364.42 322.95 362.63 323.4 360.88 323.4C358.23 323.4 356.2 322.48 354.79 320.63C353.4 318.77 353.03 316.52 353.68 313.89C354.26 311.53 355.57 309.43 357.59 307.58C360.08 305.32 362.83 304.19 365.88 304.19C367.54 304.19 369.03 304.65 370.36 305.55C370.2 306.21 369.62 308.53 369.54 308.86Z" id="a12SnXkvU"></path><path d="M394.12 308.86C392.84 307.52 391.34 306.83 389.61 306.83C387.71 306.83 385.93 307.52 384.29 308.89C382.64 310.25 381.57 311.91 381.08 313.88C380.6 315.82 380.84 317.46 381.82 318.79C382.79 320.13 384.23 320.8 386.13 320.8C387.11 320.8 387.99 320.63 388.76 320.32C389.18 320.15 389.64 319.94 390.12 319.67C390.6 319.4 391.11 319.07 391.67 318.68C391.59 319.02 390.92 321.71 390.83 322.04C389 322.95 387.21 323.4 385.46 323.4C382.82 323.4 380.79 322.48 379.38 320.63C377.98 318.77 377.61 316.52 378.26 313.89C378.84 311.53 380.15 309.43 382.17 307.58C384.66 305.32 387.42 304.19 390.46 304.19C392.13 304.19 393.61 304.65 394.95 305.55C394.78 306.21 394.2 308.53 394.12 308.86Z" id="b2ezWnoFL"></path><path d="M406.1 315.7C405.7 317.28 405.66 318.45 406.01 319.19C406.51 320.25 407.48 320.79 408.89 320.79C410.3 320.79 411.53 320.25 412.57 319.19C413.27 318.48 413.82 317.31 414.22 315.7C414.41 314.95 415.33 311.24 417 304.55L419.8 304.55C418.01 311.7 417.02 315.67 416.83 316.47C416.34 318.43 415.33 320.03 413.8 321.3C412.09 322.7 410.23 323.4 408.24 323.4C406.25 323.4 404.75 322.7 403.75 321.3C402.84 320.03 402.64 318.43 403.12 316.47C403.32 315.67 404.31 311.7 406.1 304.55L408.88 304.55C407.21 311.24 406.28 314.95 406.1 315.7Z" id="f1aEPB7WB"></path><path d="M439 323.07L435.58 323.07L432.18 315.49L431.67 315.49L429.78 323.07L426.98 323.07L431.61 304.56C433.57 304.56 434.66 304.56 434.88 304.56C437.33 304.56 438.98 305.02 439.83 305.94C440.77 306.97 441.04 308.32 440.62 309.99C440.29 311.3 439.64 312.43 438.65 313.37C437.66 314.31 436.52 314.92 435.23 315.17C435.73 316.23 436.99 318.86 439 323.07ZM433.17 313.05C435.81 313.05 437.4 312.04 437.89 310.02C438.36 308.13 437.31 307.17 434.74 307.17C434.68 307.17 434.35 307.17 433.75 307.17L432.28 313.05C432.81 313.05 433.11 313.05 433.17 313.05Z" id="a2LoaqHuI5"></path><path d="M453.22 318.58L450.03 323.07L447.02 323.07L461.09 303.39L465.03 323.07L461.97 323.07L461.14 318.58L453.22 318.58ZM459.48 309.65L455.03 315.95L460.66 315.95L459.48 309.65Z" id="eVaHKCQyC"></path><path d="M491.07 308.86C489.79 307.52 488.29 306.83 486.57 306.83C484.66 306.83 482.9 307.52 481.24 308.89C479.59 310.25 478.53 311.91 478.03 313.88C477.55 315.82 477.79 317.46 478.77 318.79C479.75 320.13 481.18 320.8 483.09 320.8C484.06 320.8 484.94 320.63 485.71 320.32C486.13 320.15 486.59 319.94 487.07 319.67C487.56 319.4 488.06 319.07 488.62 318.68C488.54 319.02 487.87 321.71 487.78 322.04C485.96 322.95 484.17 323.4 482.41 323.4C479.77 323.4 477.74 322.48 476.33 320.63C474.93 318.77 474.57 316.52 475.21 313.89C475.8 311.53 477.1 309.43 479.12 307.58C481.61 305.32 484.37 304.19 487.42 304.19C489.08 304.19 490.58 304.65 491.9 305.55C491.73 306.21 491.16 308.53 491.07 308.86Z" id="aSmovbyNo"></path><path d="M500.74 304.56L503.95 304.56L506.34 311.96L512.43 304.56L515.64 304.56L506.96 315.07L504.97 323.07L502.17 323.07L504.17 315.07L500.74 304.56Z" id="e1IP0FJOBs"></path></defs><g><g><g><use xlink:href="#a2ei98ojmU" opacity="1" fill="#ffffff" fill-opacity="1"></use><g><use xlink:href="#a2ei98ojmU" opacity="1" fill-opacity="0" stroke="#000000" stroke-width="1" stroke-opacity="0"></use></g></g><g><use xlink:href="#a74evIDVm" opacity="1" fill="#9a1b25" fill-opacity="1"></use><g><use xlink:href="#a74evIDVm" opacity="1" fill-opacity="0" stroke="#000000" stroke-width="1" stroke-opacity="0"></use></g></g><g><use xlink:href="#a2w3K9Gapp" opacity="1" fill="#00aeef" fill-opacity="1"></use><g><use xlink:href="#a2w3K9Gapp" opacity="1" fill-opacity="0" stroke="#000000" stroke-width="1" stroke-opacity="0"></use></g></g><g><use xlink:href="#aEyzOQd4U" opacity="1" fill="#ffffff" fill-opacity="1"></use><g><use xlink:href="#aEyzOQd4U" opacity="1" fill-opacity="0" stroke="#000000" stroke-width="1" stroke-opacity="0"></use></g></g><g><use xlink:href="#bsT9LtFuq" opacity="1" fill="#00aeef" fill-opacity="1"></use><g><use xlink:href="#bsT9LtFuq" opacity="1" fill-opacity="0" stroke="#000000" stroke-width="1" stroke-opacity="0"></use></g></g><g><use xlink:href="#frqsOPBXt" opacity="1" fill="#ffffff" fill-opacity="1"></use><g><use xlink:href="#frqsOPBXt" opacity="1" fill-opacity="0" stroke="#000000" stroke-width="1" stroke-opacity="0"></use></g></g><g><use xlink:href="#bdp04uycn" opacity="1" fill="#00aeef" fill-opacity="1"></use><g><use xlink:href="#bdp04uycn" opacity="1" fill-opacity="0" stroke="#000000" stroke-width="1" stroke-opacity="0"></use></g></g><g><use xlink:href="#a1t0d7isAh" opacity="1" fill="#ffffff" fill-opacity="1"></use><g><use xlink:href="#a1t0d7isAh" opacity="1" fill-opacity="0" stroke="#000000" stroke-width="1" stroke-opacity="0"></use></g></g><g><use xlink:href="#a78n6jw8hF" opacity="1" fill="#ffffff" fill-opacity="1"></use><g><use xlink:href="#a78n6jw8hF" opacity="1" fill-opacity="0" stroke="#000000" stroke-width="1" stroke-opacity="0"></use></g></g><g><use xlink:href="#dUkE47zFU" opacity="1" fill="#ffffff" fill-opacity="1"></use><g><use xlink:href="#dUkE47zFU" opacity="1" fill-opacity="0" stroke="#000000" stroke-width="1" stroke-opacity="0"></use></g></g><g><use xlink:href="#a3wU1DLoM" opacity="1" fill="#ffffff" fill-opacity="1"></use><g><use xlink:href="#a3wU1DLoM" opacity="1" fill-opacity="0" stroke="#000000" stroke-width="1" stroke-opacity="0"></use></g></g><g><use xlink:href="#eJxrqEFwC" opacity="1" fill="#ffffff" fill-opacity="1"></use><g><use xlink:href="#eJxrqEFwC" opacity="1" fill-opacity="0" stroke="#000000" stroke-width="1" stroke-opacity="0"></use></g></g><g><use xlink:href="#f6zIeJMMk6" opacity="1" fill="#ffffff" fill-opacity="1"></use><g><use xlink:href="#f6zIeJMMk6" opacity="1" fill-opacity="0" stroke="#000000" stroke-width="1" stroke-opacity="0"></use></g></g><g><use xlink:href="#e5GcWnotKw" opacity="1" fill="#ffffff" fill-opacity="1"></use><g><use xlink:href="#e5GcWnotKw" opacity="1" fill-opacity="0" stroke="#000000" stroke-width="1" stroke-opacity="0"></use></g></g><g><use xlink:href="#a2bKY4WHHO" opacity="1" fill="#ffffff" fill-opacity="1"></use><g><use xlink:href="#a2bKY4WHHO" opacity="1" fill-opacity="0" stroke="#000000" stroke-width="1" stroke-opacity="0"></use></g></g><g><use xlink:href="#a1IkXZfVYy" opacity="1" fill="#ffffff" fill-opacity="1"></use><g><use xlink:href="#a1IkXZfVYy" opacity="1" fill-opacity="0" stroke="#000000" stroke-width="1" stroke-opacity="0"></use></g></g><g><use xlink:href="#h2S9DV5zN5" opacity="1" fill="#ffffff" fill-opacity="1"></use><g><use xlink:href="#h2S9DV5zN5" opacity="1" fill-opacity="0" stroke="#000000" stroke-width="1" stroke-opacity="0"></use></g></g><g><use xlink:href="#c1Mxnof4j" opacity="1" fill="#ffffff" fill-opacity="1"></use><g><use xlink:href="#c1Mxnof4j" opacity="1" fill-opacity="0" stroke="#000000" stroke-width="1" stroke-opacity="0"></use></g></g><g><use xlink:href="#a2D975C8mg" opacity="1" fill="#ffffff" fill-opacity="1"></use><g><use xlink:href="#a2D975C8mg" opacity="1" fill-opacity="0" stroke="#000000" stroke-width="1" stroke-opacity="0"></use></g></g><g><use xlink:href="#b1rNhT1GqP" opacity="1" fill="#ffffff" fill-opacity="1"></use><g><use xlink:href="#b1rNhT1GqP" opacity="1" fill-opacity="0" stroke="#000000" stroke-width="1" stroke-opacity="0"></use></g></g><g><use xlink:href="#e9CaNkgiw" opacity="1" fill="#ffffff" fill-opacity="1"></use><g><use xlink:href="#e9CaNkgiw" opacity="1" fill-opacity="0" stroke="#000000" stroke-width="1" stroke-opacity="0"></use></g></g><g><use xlink:href="#b3EXz2d8c" opacity="1" fill="#ffffff" fill-opacity="1"></use><g><use xlink:href="#b3EXz2d8c" opacity="1" fill-opacity="0" stroke="#000000" stroke-width="1" stroke-opacity="0"></use></g></g><g><use xlink:href="#ee58OS0Ax" opacity="1" fill="#ffffff" fill-opacity="1"></use><g><use xlink:href="#ee58OS0Ax" opacity="1" fill-opacity="0" stroke="#000000" stroke-width="1" stroke-opacity="0"></use></g></g><g><use xlink:href="#k23xqdjDBb" opacity="1" fill="#ffffff" fill-opacity="1"></use><g><use xlink:href="#k23xqdjDBb" opacity="1" fill-opacity="0" stroke="#000000" stroke-width="1" stroke-opacity="0"></use></g></g><g><use xlink:href="#egWgFuIvG" opacity="1" fill="#ffffff" fill-opacity="1"></use><g><use xlink:href="#egWgFuIvG" opacity="1" fill-opacity="0" stroke="#000000" stroke-width="1" stroke-opacity="0"></use></g></g><g><use xlink:href="#a5DGYvMVh" opacity="1" fill="#ffffff" fill-opacity="1"></use><g><use xlink:href="#a5DGYvMVh" opacity="1" fill-opacity="0" stroke="#000000" stroke-width="1" stroke-opacity="0"></use></g></g><g><use xlink:href="#a12SnXkvU" opacity="1" fill="#ffffff" fill-opacity="1"></use><g><use xlink:href="#a12SnXkvU" opacity="1" fill-opacity="0" stroke="#000000" stroke-width="1" stroke-opacity="0"></use></g></g><g><use xlink:href="#b2ezWnoFL" opacity="1" fill="#ffffff" fill-opacity="1"></use><g><use xlink:href="#b2ezWnoFL" opacity="1" fill-opacity="0" stroke="#000000" stroke-width="1" stroke-opacity="0"></use></g></g><g><use xlink:href="#f1aEPB7WB" opacity="1" fill="#ffffff" fill-opacity="1"></use><g><use xlink:href="#f1aEPB7WB" opacity="1" fill-opacity="0" stroke="#000000" stroke-width="1" stroke-opacity="0"></use></g></g><g><use xlink:href="#a2LoaqHuI5" opacity="1" fill="#ffffff" fill-opacity="1"></use><g><use xlink:href="#a2LoaqHuI5" opacity="1" fill-opacity="0" stroke="#000000" stroke-width="1" stroke-opacity="0"></use></g></g><g><use xlink:href="#eVaHKCQyC" opacity="1" fill="#ffffff" fill-opacity="1"></use><g><use xlink:href="#eVaHKCQyC" opacity="1" fill-opacity="0" stroke="#000000" stroke-width="1" stroke-opacity="0"></use></g></g><g><use xlink:href="#aSmovbyNo" opacity="1" fill="#ffffff" fill-opacity="1"></use><g><use xlink:href="#aSmovbyNo" opacity="1" fill-opacity="0" stroke="#000000" stroke-width="1" stroke-opacity="0"></use></g></g><g><use xlink:href="#e1IP0FJOBs" opacity="1" fill="#ffffff" fill-opacity="1"></use><g><use xlink:href="#e1IP0FJOBs" opacity="1" fill-opacity="0" stroke="#000000" stroke-width="1" stroke-opacity="0"></use></g></g></g></g></svg>