<?xml version="1.0" encoding="UTF-8"?>
<!DOCTYPE svg PUBLIC "-//W3C//DTD SVG 1.1//EN" "http://www.w3.org/Graphics/SVG/1.1/DTD/svg11.dtd">
<svg version="1.2" width="96.52mm" height="38.1mm" viewBox="0 0 9652 3810" preserveAspectRatio="xMidYMid" fill-rule="evenodd" stroke-width="28.222" stroke-linejoin="round" xmlns="http://www.w3.org/2000/svg" xmlns:ooo="http://xml.openoffice.org/svg/export" xmlns:xlink="http://www.w3.org/1999/xlink" xmlns:presentation="http://sun.com/xmlns/staroffice/presentation" xmlns:smil="http://www.w3.org/2001/SMIL20/" xmlns:anim="urn:oasis:names:tc:opendocument:xmlns:animation:1.0" xml:space="preserve">
 <defs class="ClipPathGroup">
  <clipPath id="presentation_clip_path" clipPathUnits="userSpaceOnUse">
   <rect x="0" y="0" width="9652" height="3810"/>
  </clipPath>
  <clipPath id="presentation_clip_path_shrink" clipPathUnits="userSpaceOnUse">
   <rect x="9" y="3" width="9633" height="3803"/>
  </clipPath>
 </defs>
 <defs class="TextShapeIndex">
  <g ooo:slide="id1" ooo:id-list="id3 id4 id5 id6 id7 id8 id9 id10 id11 id12 id13 id14 id15 id16 id17 id18 id19 id20 id21 id22 id23 id24 id25"/>
 </defs>
 <defs class="EmbeddedBulletChars">
  <g id="bullet-char-template-57356" transform="scale(0.00048828125,-0.00048828125)">
   <path d="M 580,1141 L 1163,571 580,0 -4,571 580,1141 Z"/>
  </g>
  <g id="bullet-char-template-57354" transform="scale(0.00048828125,-0.00048828125)">
   <path d="M 8,1128 L 1137,1128 1137,0 8,0 8,1128 Z"/>
  </g>
  <g id="bullet-char-template-10146" transform="scale(0.00048828125,-0.00048828125)">
   <path d="M 174,0 L 602,739 174,1481 1456,739 174,0 Z M 1358,739 L 309,1346 659,739 1358,739 Z"/>
  </g>
  <g id="bullet-char-template-10132" transform="scale(0.00048828125,-0.00048828125)">
   <path d="M 2015,739 L 1276,0 717,0 1260,543 174,543 174,936 1260,936 717,1481 1274,1481 2015,739 Z"/>
  </g>
  <g id="bullet-char-template-10007" transform="scale(0.00048828125,-0.00048828125)">
   <path d="M 0,-2 C -7,14 -16,27 -25,37 L 356,567 C 262,823 215,952 215,954 215,979 228,992 255,992 264,992 276,990 289,987 310,991 331,999 354,1012 L 381,999 492,748 772,1049 836,1024 860,1049 C 881,1039 901,1025 922,1006 886,937 835,863 770,784 769,783 710,716 594,584 L 774,223 C 774,196 753,168 711,139 L 727,119 C 717,90 699,76 672,76 641,76 570,178 457,381 L 164,-76 C 142,-110 111,-127 72,-127 30,-127 9,-110 8,-76 1,-67 -2,-52 -2,-32 -2,-23 -1,-13 0,-2 Z"/>
  </g>
  <g id="bullet-char-template-10004" transform="scale(0.00048828125,-0.00048828125)">
   <path d="M 285,-33 C 182,-33 111,30 74,156 52,228 41,333 41,471 41,549 55,616 82,672 116,743 169,778 240,778 293,778 328,747 346,684 L 369,508 C 377,444 397,411 428,410 L 1163,1116 C 1174,1127 1196,1133 1229,1133 1271,1133 1292,1118 1292,1087 L 1292,965 C 1292,929 1282,901 1262,881 L 442,47 C 390,-6 338,-33 285,-33 Z"/>
  </g>
  <g id="bullet-char-template-9679" transform="scale(0.00048828125,-0.00048828125)">
   <path d="M 813,0 C 632,0 489,54 383,161 276,268 223,411 223,592 223,773 276,916 383,1023 489,1130 632,1184 813,1184 992,1184 1136,1130 1245,1023 1353,916 1407,772 1407,592 1407,412 1353,268 1245,161 1136,54 992,0 813,0 Z"/>
  </g>
  <g id="bullet-char-template-8226" transform="scale(0.00048828125,-0.00048828125)">
   <path d="M 346,457 C 273,457 209,483 155,535 101,586 74,649 74,723 74,796 101,859 155,911 209,963 273,989 346,989 419,989 480,963 531,910 582,859 608,796 608,723 608,648 583,586 532,535 482,483 420,457 346,457 Z"/>
  </g>
  <g id="bullet-char-template-8211" transform="scale(0.00048828125,-0.00048828125)">
   <path d="M -4,459 L 1135,459 1135,606 -4,606 -4,459 Z"/>
  </g>
  <g id="bullet-char-template-61548" transform="scale(0.00048828125,-0.00048828125)">
   <path d="M 173,740 C 173,903 231,1043 346,1159 462,1274 601,1332 765,1332 928,1332 1067,1274 1183,1159 1299,1043 1357,903 1357,740 1357,577 1299,437 1183,322 1067,206 928,148 765,148 601,148 462,206 346,322 231,437 173,577 173,740 Z"/>
  </g>
 </defs>
 <defs class="TextEmbeddedBitmaps"/>
 <g>
  <g id="id2" class="Master_Slide">
   <g id="bg-id2" class="Background"/>
   <g id="bo-id2" class="BackgroundObjects"/>
  </g>
 </g>
 <g class="SlideGroup">
  <g>
   <g id="container-id1">
    <g id="id1" class="Slide" clip-path="url(#presentation_clip_path)">
     <g class="Page">
      <g class="com.sun.star.drawing.ClosedBezierShape">
       <g id="id3">
        <rect class="BoundingBox" stroke="none" fill="none" x="112" y="1047" width="1082" height="1157"/>
        <path fill="rgb(0,0,0)" stroke="none" d="M 565,1577 L 663,1577 C 773,1577 840,1529 865,1433 888,1337 846,1288 735,1288 L 636,1288 565,1577 Z M 410,2203 L 112,2203 398,1047 874,1047 C 1001,1047 1092,1081 1144,1148 1195,1215 1206,1310 1176,1433 1146,1555 1088,1650 1003,1719 917,1787 810,1820 681,1820 L 505,1820 410,2203 Z"/>
        <path fill="rgb(255,255,255)" stroke="none" d="M 565,1577 L 663,1577 C 773,1577 840,1529 865,1433 888,1337 846,1288 735,1288 L 636,1288 565,1577 Z M 410,2203 L 112,2203 398,1047 874,1047 C 1001,1047 1092,1081 1144,1148 1195,1215 1206,1310 1176,1433 1146,1555 1088,1650 1003,1719 917,1787 810,1820 681,1820 L 505,1820 410,2203 Z"/>
       </g>
      </g>
      <g class="com.sun.star.drawing.ClosedBezierShape">
       <g id="id4">
        <rect class="BoundingBox" stroke="none" fill="none" x="1236" y="1047" width="1195" height="1189"/>
        <path fill="rgb(0,0,0)" stroke="none" d="M 1729,1047 L 1572,1675 C 1564,1708 1556,1744 1551,1778 1544,1814 1544,1845 1550,1873 1555,1903 1570,1925 1592,1943 1616,1961 1652,1970 1702,1970 1752,1970 1793,1961 1824,1943 1854,1925 1880,1903 1901,1873 1922,1845 1937,1814 1948,1778 1960,1744 1970,1708 1978,1675 L 2133,1047 2429,1047 2263,1717 C 2220,1896 2146,2027 2044,2109 1942,2194 1806,2235 1636,2235 1467,2235 1351,2194 1290,2109 1228,2027 1219,1896 1264,1717 L 1430,1047 1729,1047 Z"/>
        <path fill="rgb(255,255,255)" stroke="none" d="M 1729,1047 L 1572,1675 C 1564,1708 1556,1744 1551,1778 1544,1814 1544,1845 1550,1873 1555,1903 1570,1925 1592,1943 1616,1961 1652,1970 1702,1970 1752,1970 1793,1961 1824,1943 1854,1925 1880,1903 1901,1873 1922,1845 1937,1814 1948,1778 1960,1744 1970,1708 1978,1675 L 2133,1047 2429,1047 2263,1717 C 2220,1896 2146,2027 2044,2109 1942,2194 1806,2235 1636,2235 1467,2235 1351,2194 1290,2109 1228,2027 1219,1896 1264,1717 L 1430,1047 1729,1047 Z"/>
       </g>
      </g>
      <g class="com.sun.star.drawing.ClosedBezierShape">
       <g id="id5">
        <rect class="BoundingBox" stroke="none" fill="none" x="2453" y="1016" width="1035" height="1220"/>
        <path fill="rgb(0,0,0)" stroke="none" d="M 3397,1435 C 3349,1349 3274,1306 3173,1306 3128,1306 3085,1314 3043,1331 3001,1347 2963,1370 2929,1399 2894,1427 2865,1460 2839,1499 2814,1537 2796,1579 2784,1625 2773,1671 2771,1713 2777,1752 2783,1790 2797,1824 2817,1853 2838,1881 2865,1903 2899,1920 2932,1936 2970,1944 3014,1944 3109,1944 3205,1903 3301,1822 L 3213,2178 3180,2188 C 3131,2204 3085,2216 3043,2224 3002,2232 2963,2235 2923,2235 2845,2235 2773,2221 2708,2190 2643,2161 2590,2118 2548,2064 2504,2008 2476,1944 2462,1868 2447,1793 2451,1711 2472,1623 2494,1534 2532,1452 2583,1378 2634,1304 2695,1239 2763,1186 2832,1132 2905,1090 2986,1061 3067,1031 3146,1016 3227,1016 3273,1016 3315,1020 3358,1029 3399,1040 3442,1055 3486,1074 L 3397,1435 Z"/>
        <path fill="rgb(255,255,255)" stroke="none" d="M 3397,1435 C 3349,1349 3274,1306 3173,1306 3128,1306 3085,1314 3043,1331 3001,1347 2963,1370 2929,1399 2894,1427 2865,1460 2839,1499 2814,1537 2796,1579 2784,1625 2773,1671 2771,1713 2777,1752 2783,1790 2797,1824 2817,1853 2838,1881 2865,1903 2899,1920 2932,1936 2970,1944 3014,1944 3109,1944 3205,1903 3301,1822 L 3213,2178 3180,2188 C 3131,2204 3085,2216 3043,2224 3002,2232 2963,2235 2923,2235 2845,2235 2773,2221 2708,2190 2643,2161 2590,2118 2548,2064 2504,2008 2476,1944 2462,1868 2447,1793 2451,1711 2472,1623 2494,1534 2532,1452 2583,1378 2634,1304 2695,1239 2763,1186 2832,1132 2905,1090 2986,1061 3067,1031 3146,1016 3227,1016 3273,1016 3315,1020 3358,1029 3399,1040 3442,1055 3486,1074 L 3397,1435 Z"/>
       </g>
      </g>
      <g class="com.sun.star.drawing.PolyPolygonShape">
       <g id="id6">
        <rect class="BoundingBox" stroke="none" fill="none" x="3443" y="1047" width="1316" height="1157"/>
        <path fill="rgb(0,0,0)" stroke="none" d="M 3909,1523 L 4391,1047 4758,1047 4168,1593 4515,2203 4129,2203 3864,1701 3740,2203 3443,2203 3728,1047 4027,1047 3909,1523 Z"/>
        <path fill="rgb(255,255,255)" stroke="none" d="M 3909,1523 L 4391,1047 4758,1047 4168,1593 4515,2203 4129,2203 3864,1701 3740,2203 3443,2203 3728,1047 4027,1047 3909,1523 Z"/>
       </g>
      </g>
      <g class="com.sun.star.drawing.PolyPolygonShape">
       <g id="id7">
        <rect class="BoundingBox" stroke="none" fill="none" x="4646" y="1047" width="1313" height="1157"/>
        <path fill="rgb(0,0,0)" stroke="none" d="M 5119,1493 L 5550,1493 5660,1047 5958,1047 5672,2203 5374,2203 5493,1726 5062,1726 4944,2203 4646,2203 4932,1047 5231,1047 5119,1493 Z"/>
        <path fill="rgb(255,255,255)" stroke="none" d="M 5119,1493 L 5550,1493 5660,1047 5958,1047 5672,2203 5374,2203 5493,1726 5062,1726 4944,2203 4646,2203 4932,1047 5231,1047 5119,1493 Z"/>
       </g>
      </g>
      <g class="com.sun.star.drawing.ClosedBezierShape">
       <g id="id8">
        <rect class="BoundingBox" stroke="none" fill="none" x="6004" y="1047" width="1195" height="1189"/>
        <path fill="rgb(0,0,0)" stroke="none" d="M 6496,1047 L 6340,1675 C 6331,1708 6324,1744 6318,1778 6312,1814 6312,1845 6318,1873 6323,1903 6337,1925 6360,1943 6383,1961 6421,1970 6470,1970 6519,1970 6560,1961 6591,1943 6622,1925 6648,1903 6668,1873 6688,1845 6704,1814 6715,1778 6727,1744 6737,1708 6746,1675 L 6900,1047 7197,1047 7031,1717 C 6986,1896 6914,2027 6812,2109 6710,2194 6574,2235 6404,2235 6235,2235 6119,2194 6058,2109 5996,2027 5987,1896 6032,1717 L 6198,1047 6496,1047 Z"/>
        <path fill="rgb(255,255,255)" stroke="none" d="M 6496,1047 L 6340,1675 C 6331,1708 6324,1744 6318,1778 6312,1814 6312,1845 6318,1873 6323,1903 6337,1925 6360,1943 6383,1961 6421,1970 6470,1970 6519,1970 6560,1961 6591,1943 6622,1925 6648,1903 6668,1873 6688,1845 6704,1814 6715,1778 6727,1744 6737,1708 6746,1675 L 6900,1047 7197,1047 7031,1717 C 6986,1896 6914,2027 6812,2109 6710,2194 6574,2235 6404,2235 6235,2235 6119,2194 6058,2109 5996,2027 5987,1896 6032,1717 L 6198,1047 6496,1047 Z"/>
       </g>
      </g>
      <g class="com.sun.star.drawing.PolyPolygonShape">
       <g id="id9">
        <rect class="BoundingBox" stroke="none" fill="none" x="7150" y="1047" width="1431" height="1157"/>
        <path fill="rgb(0,0,0)" stroke="none" d="M 7150,2203 L 7436,1047 7735,1047 8110,1754 8285,1047 8580,1047 8295,2203 7999,2203 7623,1495 7448,2203 7150,2203 Z"/>
        <path fill="rgb(255,255,255)" stroke="none" d="M 7150,2203 L 7436,1047 7735,1047 8110,1754 8285,1047 8580,1047 8295,2203 7999,2203 7623,1495 7448,2203 7150,2203 Z"/>
       </g>
      </g>
      <g class="com.sun.star.drawing.PolyPolygonShape">
       <g id="id10">
        <rect class="BoundingBox" stroke="none" fill="none" x="8649" y="1047" width="852" height="1157"/>
        <path fill="rgb(0,0,0)" stroke="none" d="M 9191,1301 L 8969,2203 8671,2203 8894,1301 8649,1301 8712,1047 9500,1047 9438,1301 9191,1301 Z"/>
        <path fill="rgb(255,255,255)" stroke="none" d="M 9191,1301 L 8969,2203 8671,2203 8894,1301 8649,1301 8712,1047 9500,1047 9438,1301 9191,1301 Z"/>
       </g>
      </g>
      <g class="com.sun.star.drawing.PolyPolygonShape">
       <g id="id11">
        <rect class="BoundingBox" stroke="none" fill="none" x="102" y="2349" width="387" height="428"/>
        <path fill="rgb(0,0,0)" stroke="none" d="M 395,2621 L 370,2486 275,2621 395,2621 Z M 406,2678 L 234,2678 166,2776 102,2776 404,2349 488,2776 423,2776 406,2678 Z"/>
        <path fill="rgb(255,255,255)" stroke="none" d="M 395,2621 L 370,2486 275,2621 395,2621 Z M 406,2678 L 234,2678 166,2776 102,2776 404,2349 488,2776 423,2776 406,2678 Z"/>
       </g>
      </g>
      <g class="com.sun.star.drawing.ClosedBezierShape">
       <g id="id12">
        <rect class="BoundingBox" stroke="none" fill="none" x="1038" y="2365" width="412" height="419"/>
        <path fill="rgb(0,0,0)" stroke="none" d="M 1272,2567 L 1436,2567 1433,2580 C 1425,2610 1415,2637 1403,2659 1390,2681 1374,2701 1354,2720 1305,2762 1254,2783 1197,2783 1142,2783 1098,2762 1068,2723 1039,2682 1031,2633 1044,2576 1059,2518 1093,2467 1143,2427 1193,2387 1247,2366 1305,2366 1336,2366 1364,2373 1387,2385 1410,2399 1430,2419 1448,2448 L 1395,2489 C 1373,2445 1339,2424 1292,2424 1250,2424 1211,2438 1175,2467 1140,2496 1117,2532 1106,2576 1095,2621 1101,2658 1126,2686 1150,2713 1179,2726 1212,2726 1243,2726 1272,2716 1300,2697 1328,2676 1348,2652 1357,2624 L 1258,2624 1272,2567 Z"/>
        <path fill="rgb(255,255,255)" stroke="none" d="M 1272,2567 L 1436,2567 1433,2580 C 1425,2610 1415,2637 1403,2659 1390,2681 1374,2701 1354,2720 1305,2762 1254,2783 1197,2783 1142,2783 1098,2762 1068,2723 1039,2682 1031,2633 1044,2576 1059,2518 1093,2467 1143,2427 1193,2387 1247,2366 1305,2366 1336,2366 1364,2373 1387,2385 1410,2399 1430,2419 1448,2448 L 1395,2489 C 1373,2445 1339,2424 1292,2424 1250,2424 1211,2438 1175,2467 1140,2496 1117,2532 1106,2576 1095,2621 1101,2658 1126,2686 1150,2713 1179,2726 1212,2726 1243,2726 1272,2716 1300,2697 1328,2676 1348,2652 1357,2624 L 1258,2624 1272,2567 Z"/>
       </g>
      </g>
      <g class="com.sun.star.drawing.PolyPolygonShape">
       <g id="id13">
        <rect class="BoundingBox" stroke="none" fill="none" x="1554" y="2349" width="389" height="428"/>
        <path fill="rgb(0,0,0)" stroke="none" d="M 1847,2621 L 1823,2486 1727,2621 1847,2621 Z M 1859,2678 L 1687,2678 1619,2776 1554,2776 1858,2349 1942,2776 1875,2776 1859,2678 Z"/>
        <path fill="rgb(255,255,255)" stroke="none" d="M 1847,2621 L 1823,2486 1727,2621 1847,2621 Z M 1859,2678 L 1687,2678 1619,2776 1554,2776 1858,2349 1942,2776 1875,2776 1859,2678 Z"/>
       </g>
      </g>
      <g class="com.sun.star.drawing.PolyPolygonShape">
       <g id="id14">
        <rect class="BoundingBox" stroke="none" fill="none" x="2134" y="2344" width="470" height="451"/>
        <path fill="rgb(0,0,0)" stroke="none" d="M 2134,2776 L 2326,2344 2385,2657 2602,2344 2571,2776 2510,2776 2532,2535 2349,2794 2300,2533 2196,2776 2134,2776 Z"/>
        <path fill="rgb(255,255,255)" stroke="none" d="M 2134,2776 L 2326,2344 2385,2657 2602,2344 2571,2776 2510,2776 2532,2535 2349,2794 2300,2533 2196,2776 2134,2776 Z"/>
       </g>
      </g>
      <g class="com.sun.star.drawing.PolyPolygonShape">
       <g id="id15">
        <rect class="BoundingBox" stroke="none" fill="none" x="2813" y="2374" width="320" height="403"/>
        <path fill="rgb(0,0,0)" stroke="none" d="M 3118,2431 L 2957,2431 2934,2527 3090,2527 3075,2584 2919,2584 2887,2717 3047,2717 3033,2776 2813,2776 2912,2374 3132,2374 3118,2431 Z"/>
        <path fill="rgb(255,255,255)" stroke="none" d="M 3118,2431 L 2957,2431 2934,2527 3090,2527 3075,2584 2919,2584 2887,2717 3047,2717 3033,2776 2813,2776 2912,2374 3132,2374 3118,2431 Z"/>
       </g>
      </g>
      <g class="com.sun.star.drawing.ClosedBezierShape">
       <g id="id16">
        <rect class="BoundingBox" stroke="none" fill="none" x="3611" y="2365" width="431" height="419"/>
        <path fill="rgb(0,0,0)" stroke="none" d="M 3679,2574 C 3669,2619 3675,2655 3697,2683 3720,2711 3750,2726 3788,2726 3829,2726 3869,2711 3905,2682 3940,2653 3963,2618 3974,2575 3984,2533 3978,2496 3958,2466 3937,2438 3906,2424 3864,2424 3823,2424 3785,2438 3749,2466 3713,2496 3691,2532 3679,2574 Z M 3619,2574 C 3633,2518 3666,2467 3716,2427 3768,2387 3822,2366 3879,2366 3936,2366 3978,2387 4010,2428 4040,2469 4048,2518 4034,2576 4020,2634 3987,2682 3937,2723 3886,2762 3831,2783 3773,2783 3722,2783 3681,2765 3648,2729 3612,2689 3602,2638 3619,2574 Z"/>
        <path fill="rgb(255,255,255)" stroke="none" d="M 3679,2574 C 3669,2619 3675,2655 3697,2683 3720,2711 3750,2726 3788,2726 3829,2726 3869,2711 3905,2682 3940,2653 3963,2618 3974,2575 3984,2533 3978,2496 3958,2466 3937,2438 3906,2424 3864,2424 3823,2424 3785,2438 3749,2466 3713,2496 3691,2532 3679,2574 Z M 3619,2574 C 3633,2518 3666,2467 3716,2427 3768,2387 3822,2366 3879,2366 3936,2366 3978,2387 4010,2428 4040,2469 4048,2518 4034,2576 4020,2634 3987,2682 3937,2723 3886,2762 3831,2783 3773,2783 3722,2783 3681,2765 3648,2729 3612,2689 3602,2638 3619,2574 Z"/>
       </g>
      </g>
      <g class="com.sun.star.drawing.PolyPolygonShape">
       <g id="id17">
        <rect class="BoundingBox" stroke="none" fill="none" x="4217" y="2374" width="299" height="403"/>
        <path fill="rgb(0,0,0)" stroke="none" d="M 4502,2431 L 4361,2431 4338,2527 4472,2527 4459,2584 4323,2584 4276,2776 4217,2776 4316,2374 4515,2374 4502,2431 Z"/>
        <path fill="rgb(255,255,255)" stroke="none" d="M 4502,2431 L 4361,2431 4338,2527 4472,2527 4459,2584 4323,2584 4276,2776 4217,2776 4316,2374 4515,2374 4502,2431 Z"/>
       </g>
      </g>
      <g class="com.sun.star.drawing.PolyPolygonShape">
       <g id="id18">
        <rect class="BoundingBox" stroke="none" fill="none" x="4917" y="2349" width="389" height="428"/>
        <path fill="rgb(0,0,0)" stroke="none" d="M 5210,2621 L 5185,2486 5090,2621 5210,2621 Z M 5221,2678 L 5050,2678 4982,2776 4917,2776 5219,2349 5305,2776 5238,2776 5221,2678 Z"/>
        <path fill="rgb(255,255,255)" stroke="none" d="M 5210,2621 L 5185,2486 5090,2621 5210,2621 Z M 5221,2678 L 5050,2678 4982,2776 4917,2776 5219,2349 5305,2776 5238,2776 5221,2678 Z"/>
       </g>
      </g>
      <g class="com.sun.star.drawing.ClosedBezierShape">
       <g id="id19">
        <rect class="BoundingBox" stroke="none" fill="none" x="5515" y="2365" width="368" height="419"/>
        <path fill="rgb(0,0,0)" stroke="none" d="M 5881,2396 L 5865,2467 C 5837,2438 5804,2424 5767,2424 5727,2424 5689,2438 5654,2467 5617,2497 5593,2534 5583,2577 5573,2619 5579,2654 5599,2683 5620,2711 5653,2726 5693,2726 5714,2726 5733,2723 5749,2716 5758,2713 5768,2708 5778,2701 5788,2695 5800,2689 5812,2681 L 5794,2753 C 5755,2772 5716,2783 5679,2783 5620,2783 5577,2762 5546,2723 5517,2682 5508,2634 5523,2577 5535,2527 5563,2480 5607,2439 5661,2391 5720,2366 5786,2366 5822,2366 5853,2376 5881,2396 Z"/>
        <path fill="rgb(255,255,255)" stroke="none" d="M 5881,2396 L 5865,2467 C 5837,2438 5804,2424 5767,2424 5727,2424 5689,2438 5654,2467 5617,2497 5593,2534 5583,2577 5573,2619 5579,2654 5599,2683 5620,2711 5653,2726 5693,2726 5714,2726 5733,2723 5749,2716 5758,2713 5768,2708 5778,2701 5788,2695 5800,2689 5812,2681 L 5794,2753 C 5755,2772 5716,2783 5679,2783 5620,2783 5577,2762 5546,2723 5517,2682 5508,2634 5523,2577 5535,2527 5563,2480 5607,2439 5661,2391 5720,2366 5786,2366 5822,2366 5853,2376 5881,2396 Z"/>
       </g>
      </g>
      <g class="com.sun.star.drawing.ClosedBezierShape">
       <g id="id20">
        <rect class="BoundingBox" stroke="none" fill="none" x="6042" y="2365" width="368" height="419"/>
        <path fill="rgb(0,0,0)" stroke="none" d="M 6409,2396 L 6391,2467 C 6363,2438 6330,2424 6293,2424 6252,2424 6215,2438 6179,2467 6143,2497 6121,2534 6111,2577 6099,2619 6105,2654 6126,2683 6146,2711 6178,2726 6219,2726 6239,2726 6258,2723 6275,2716 6284,2713 6294,2708 6304,2701 6314,2695 6326,2689 6337,2681 L 6319,2753 C 6280,2772 6242,2783 6204,2783 6148,2783 6104,2762 6074,2723 6043,2682 6036,2634 6050,2577 6062,2527 6090,2480 6133,2439 6187,2391 6246,2366 6311,2366 6347,2366 6381,2376 6409,2396 Z"/>
        <path fill="rgb(255,255,255)" stroke="none" d="M 6409,2396 L 6391,2467 C 6363,2438 6330,2424 6293,2424 6252,2424 6215,2438 6179,2467 6143,2497 6121,2534 6111,2577 6099,2619 6105,2654 6126,2683 6146,2711 6178,2726 6219,2726 6239,2726 6258,2723 6275,2716 6284,2713 6294,2708 6304,2701 6314,2695 6326,2689 6337,2681 L 6319,2753 C 6280,2772 6242,2783 6204,2783 6148,2783 6104,2762 6074,2723 6043,2682 6036,2634 6050,2577 6062,2527 6090,2480 6133,2439 6187,2391 6246,2366 6311,2366 6347,2366 6381,2376 6409,2396 Z"/>
       </g>
      </g>
      <g class="com.sun.star.drawing.ClosedBezierShape">
       <g id="id21">
        <rect class="BoundingBox" stroke="none" fill="none" x="6578" y="2374" width="367" height="409"/>
        <path fill="rgb(0,0,0)" stroke="none" d="M 6709,2374 L 6648,2617 C 6639,2651 6638,2675 6646,2691 6657,2715 6677,2726 6709,2726 6739,2726 6765,2715 6787,2691 6803,2676 6814,2652 6823,2617 L 6882,2374 6943,2374 6879,2633 C 6869,2675 6846,2709 6814,2737 6777,2768 6738,2782 6693,2782 6650,2782 6619,2768 6597,2737 6578,2709 6573,2675 6583,2633 L 6647,2374 6709,2374 Z"/>
        <path fill="rgb(255,255,255)" stroke="none" d="M 6709,2374 L 6648,2617 C 6639,2651 6638,2675 6646,2691 6657,2715 6677,2726 6709,2726 6739,2726 6765,2715 6787,2691 6803,2676 6814,2652 6823,2617 L 6882,2374 6943,2374 6879,2633 C 6869,2675 6846,2709 6814,2737 6777,2768 6738,2782 6693,2782 6650,2782 6619,2768 6597,2737 6578,2709 6573,2675 6583,2633 L 6647,2374 6709,2374 Z"/>
       </g>
      </g>
      <g class="com.sun.star.drawing.ClosedBezierShape">
       <g id="id22">
        <rect class="BoundingBox" stroke="none" fill="none" x="7094" y="2374" width="299" height="403"/>
        <path fill="rgb(0,0,0)" stroke="none" d="M 7208,2558 L 7227,2558 C 7283,2558 7317,2536 7328,2493 7338,2451 7316,2431 7261,2431 L 7240,2431 7208,2558 Z M 7271,2605 L 7352,2776 7279,2776 7206,2610 7195,2610 7154,2776 7094,2776 7194,2374 7263,2374 C 7316,2374 7352,2384 7371,2404 7391,2426 7396,2456 7387,2492 7381,2520 7367,2544 7345,2565 7324,2585 7299,2597 7271,2605 Z"/>
        <path fill="rgb(255,255,255)" stroke="none" d="M 7208,2558 L 7227,2558 C 7283,2558 7317,2536 7328,2493 7338,2451 7316,2431 7261,2431 L 7240,2431 7208,2558 Z M 7271,2605 L 7352,2776 7279,2776 7206,2610 7195,2610 7154,2776 7094,2776 7194,2374 7263,2374 C 7316,2374 7352,2384 7371,2404 7391,2426 7396,2456 7387,2492 7381,2520 7367,2544 7345,2565 7324,2585 7299,2597 7271,2605 Z"/>
       </g>
      </g>
      <g class="com.sun.star.drawing.PolyPolygonShape">
       <g id="id23">
        <rect class="BoundingBox" stroke="none" fill="none" x="7524" y="2349" width="387" height="428"/>
        <path fill="rgb(0,0,0)" stroke="none" d="M 7817,2621 L 7792,2486 7697,2621 7817,2621 Z M 7828,2678 L 7657,2678 7589,2776 7524,2776 7826,2349 7910,2776 7845,2776 7828,2678 Z"/>
        <path fill="rgb(255,255,255)" stroke="none" d="M 7817,2621 L 7792,2486 7697,2621 7817,2621 Z M 7828,2678 L 7657,2678 7589,2776 7524,2776 7826,2349 7910,2776 7845,2776 7828,2678 Z"/>
       </g>
      </g>
      <g class="com.sun.star.drawing.ClosedBezierShape">
       <g id="id24">
        <rect class="BoundingBox" stroke="none" fill="none" x="8120" y="2365" width="369" height="419"/>
        <path fill="rgb(0,0,0)" stroke="none" d="M 8487,2396 L 8469,2467 C 8442,2438 8410,2424 8373,2424 8331,2424 8293,2438 8258,2467 8223,2497 8200,2534 8189,2577 8178,2619 8183,2654 8206,2683 8226,2711 8257,2726 8298,2726 8319,2726 8338,2723 8355,2716 8364,2713 8373,2708 8384,2701 8394,2695 8405,2689 8416,2681 L 8398,2753 C 8359,2772 8321,2783 8283,2783 8227,2783 8182,2762 8152,2723 8122,2682 8114,2634 8127,2577 8141,2527 8169,2480 8212,2439 8266,2391 8326,2366 8391,2366 8426,2366 8459,2376 8487,2396 Z"/>
        <path fill="rgb(255,255,255)" stroke="none" d="M 8487,2396 L 8469,2467 C 8442,2438 8410,2424 8373,2424 8331,2424 8293,2438 8258,2467 8223,2497 8200,2534 8189,2577 8178,2619 8183,2654 8206,2683 8226,2711 8257,2726 8298,2726 8319,2726 8338,2723 8355,2716 8364,2713 8373,2708 8384,2701 8394,2695 8405,2689 8416,2681 L 8398,2753 C 8359,2772 8321,2783 8283,2783 8227,2783 8182,2762 8152,2723 8122,2682 8114,2634 8127,2577 8141,2527 8169,2480 8212,2439 8266,2391 8326,2366 8391,2366 8426,2366 8459,2376 8487,2396 Z"/>
       </g>
      </g>
      <g class="com.sun.star.drawing.PolyPolygonShape">
       <g id="id25">
        <rect class="BoundingBox" stroke="none" fill="none" x="8676" y="2374" width="321" height="403"/>
        <path fill="rgb(0,0,0)" stroke="none" d="M 8750,2601 L 8676,2374 8745,2374 8796,2535 8928,2374 8996,2374 8809,2601 8767,2776 8706,2776 8750,2601 Z"/>
        <path fill="rgb(255,255,255)" stroke="none" d="M 8750,2601 L 8676,2374 8745,2374 8796,2535 8928,2374 8996,2374 8809,2601 8767,2776 8706,2776 8750,2601 Z"/>
       </g>
      </g>
     </g>
    </g>
   </g>
  </g>
 </g>
</svg>