{
  "accessors": [
    {
      "bufferView": 2,
      "componentType": 5126,
      "count": 60,
      "max": [
        0.86449158191680908,
        -0.092467613518238068,
        0.77131837606430054
      ],
      "min": [
        -0.89254611730575562,
        -0.7616545557975769,
        0.36103993654251099
      ],
      "type": "VEC3"
    },
    {
      "bufferView": 2,
      "byteOffset": 720,
      "componentType": 5126,
      "count": 60,
      "max": [
        0.63894301652908325,
        0.65287822484970093,
        0.76953458786010742
      ],
      "min": [
        -0.59885984659194946,
        -0.6408156156539917,
        -0.75997793674468994
      ],
      "type": "VEC3"
    },
    {
      "bufferView": 3,
      "componentType": 5126,
      "count": 60,
      "max": [
        0.99963206052780151,
        0.70348024368286133,
        0.15296384692192078,
        1
      ],
      "min": [
        0.67543512582778931,
        -0.57894903421401978,
        -0.28428515791893005,
        -1
      ],
      "type": "VEC4"
    },
    {
      "bufferView": 1,
      "componentType": 5126,
      "count": 60,
      "max": [
        0.50039827823638916,
        0.89012855291366577
      ],
      "min": [
        0.33248630166053772,
        0.83708041906356812
      ],
      "type": "VEC2"
    },
    {
      "bufferView": 0,
      "componentType": 5125,
      "count": 168,
      "max": [
        59
      ],
      "min": [
        0
      ],
      "type": "SCALAR"
    },
    {
      "bufferView": 2,
      "byteOffset": 1440,
      "componentType": 5126,
      "count": 7636,
      "max": [
        1.0922573804855347,
        2.8288664817810059,
        0.8437010645866394
      ],
      "min": [
        -1.1189970970153809,
        -2.7942297458648682,
        -0.44809213280677795
      ],
      "type": "VEC3"
    },
    {
      "bufferView": 2,
      "byteOffset": 93072,
      "componentType": 5126,
      "count": 7636,
      "max": [
        1,
        1,
        0.99999880790710449
      ],
      "min": [
        -1,
        -0.99996209144592285,
        -0.99993884563446045
      ],
      "type": "VEC3"
    },
    {
      "bufferView": 3,
      "byteOffset": 960,
      "componentType": 5126,
      "count": 7636,
      "max": [
        1,
        0.99996769428253174,
        0.99989312887191772,
        1
      ],
      "min": [
        -0.9999997615814209,
        -0.99999231100082397,
        -0.99996012449264526,
        -1
      ],
      "type": "VEC4"
    },
    {
      "bufferView": 1,
      "byteOffset": 480,
      "componentType": 5126,
      "count": 7636,
      "max": [
        0.99739068746566772,
        0.99736559391021729
      ],
      "min": [
        0.0025168638676404953,
        0.0025167437270283699
      ],
      "type": "VEC2"
    },
    {
      "bufferView": 0,
      "byteOffset": 672,
      "componentType": 5125,
      "count": 28329,
      "max": [
        7635
      ],
      "min": [
        0
      ],
      "type": "SCALAR"
    },
    {
      "bufferView": 2,
      "byteOffset": 184704,
      "componentType": 5126,
      "count": 619,
      "max": [
        0.13050985336303711,
        0.36888980865478516,
        0.36888971924781799
      ],
      "min": [
        -0.11261224746704102,
        -0.36889004707336426,
        -0.36889004707336426
      ],
      "type": "VEC3"
    },
    {
      "bufferView": 2,
      "byteOffset": 192132,
      "componentType": 5126,
      "count": 619,
      "max": [
        0.99741625785827637,
        1,
        1
      ],
      "min": [
        -0.96424084901809692,
        -1,
        -1
      ],
      "type": "VEC3"
    },
    {
      "bufferView": 3,
      "byteOffset": 123136,
      "componentType": 5126,
      "count": 619,
      "max": [
        1,
        0.89173823595046997,
        0.82503628730773926,
        1
      ],
      "min": [
        -0.99999988079071045,
        -0.99568849802017212,
        -0.81941431760787964,
        1
      ],
      "type": "VEC4"
    },
    {
      "bufferView": 1,
      "byteOffset": 61568,
      "componentType": 5126,
      "count": 619,
      "max": [
        0.99728715419769287,
        0.95403867959976196
      ],
      "min": [
        0.0025226620491594076,
        0.002524013863876462
      ],
      "type": "VEC2"
    },
    {
      "bufferView": 0,
      "byteOffset": 113988,
      "componentType": 5125,
      "count": 2292,
      "max": [
        618
      ],
      "min": [
        0
      ],
      "type": "SCALAR"
    },
    {
      "bufferView": 2,
      "byteOffset": 199560,
      "componentType": 5126,
      "count": 619,
      "max": [
        0.13050985336303711,
        0.36888980865478516,
        0.36888971924781799
      ],
      "min": [
        -0.11261224746704102,
        -0.36889004707336426,
        -0.36889004707336426
      ],
      "type": "VEC3"
    },
    {
      "bufferView": 2,
      "byteOffset": 206988,
      "componentType": 5126,
      "count": 619,
      "max": [
        0.99741625785827637,
        1,
        1
      ],
      "min": [
        -0.96424084901809692,
        -1,
        -1
      ],
      "type": "VEC3"
    },
    {
      "bufferView": 3,
      "byteOffset": 133040,
      "componentType": 5126,
      "count": 619,
      "max": [
        1,
        0.89173823595046997,
        0.82503628730773926,
        1
      ],
      "min": [
        -0.99999988079071045,
        -0.99568849802017212,
        -0.81941431760787964,
        1
      ],
      "type": "VEC4"
    },
    {
      "bufferView": 1,
      "byteOffset": 66520,
      "componentType": 5126,
      "count": 619,
      "max": [
        0.99728715419769287,
        0.95403867959976196
      ],
      "min": [
        0.0025226620491594076,
        0.002524013863876462
      ],
      "type": "VEC2"
    },
    {
      "bufferView": 0,
      "byteOffset": 123156,
      "componentType": 5125,
      "count": 2292,
      "max": [
        618
      ],
      "min": [
        0
      ],
      "type": "SCALAR"
    },
    {
      "bufferView": 2,
      "byteOffset": 214416,
      "componentType": 5126,
      "count": 619,
      "max": [
        0.13050985336303711,
        0.36888980865478516,
        0.36888971924781799
      ],
      "min": [
        -0.11261224746704102,
        -0.36889004707336426,
        -0.36889004707336426
      ],
      "type": "VEC3"
    },
    {
      "bufferView": 2,
      "byteOffset": 221844,
      "componentType": 5126,
      "count": 619,
      "max": [
        0.99741625785827637,
        1,
        1
      ],
      "min": [
        -0.96424084901809692,
        -1,
        -1
      ],
      "type": "VEC3"
    },
    {
      "bufferView": 3,
      "byteOffset": 142944,
      "componentType": 5126,
      "count": 619,
      "max": [
        1,
        0.89173823595046997,
        0.82503628730773926,
        1
      ],
      "min": [
        -0.99999988079071045,
        -0.99568849802017212,
        -0.81941431760787964,
        1
      ],
      "type": "VEC4"
    },
    {
      "bufferView": 1,
      "byteOffset": 71472,
      "componentType": 5126,
      "count": 619,
      "max": [
        0.99728715419769287,
        0.95403867959976196
      ],
      "min": [
        0.0025226620491594076,
        0.002524013863876462
      ],
      "type": "VEC2"
    },
    {
      "bufferView": 0,
      "byteOffset": 132324,
      "componentType": 5125,
      "count": 2292,
      "max": [
        618
      ],
      "min": [
        0
      ],
      "type": "SCALAR"
    },
    {
      "bufferView": 2,
      "byteOffset": 229272,
      "componentType": 5126,
      "count": 619,
      "max": [
        0.13050985336303711,
        0.36888980865478516,
        0.36888971924781799
      ],
      "min": [
        -0.11261224746704102,
        -0.36889004707336426,
        -0.36889004707336426
      ],
      "type": "VEC3"
    },
    {
      "bufferView": 2,
      "byteOffset": 236700,
      "componentType": 5126,
      "count": 619,
      "max": [
        0.99741625785827637,
        1,
        1
      ],
      "min": [
        -0.96424084901809692,
        -1,
        -1
      ],
      "type": "VEC3"
    },
    {
      "bufferView": 3,
      "byteOffset": 152848,
      "componentType": 5126,
      "count": 619,
      "max": [
        1,
        0.89173823595046997,
        0.82503628730773926,
        1
      ],
      "min": [
        -0.99999988079071045,
        -0.99568849802017212,
        -0.81941431760787964,
        1
      ],
      "type": "VEC4"
    },
    {
      "bufferView": 1,
      "byteOffset": 76424,
      "componentType": 5126,
      "count": 619,
      "max": [
        0.99728715419769287,
        0.95403867959976196
      ],
      "min": [
        0.0025226620491594076,
        0.002524013863876462
      ],
      "type": "VEC2"
    },
    {
      "bufferView": 0,
      "byteOffset": 141492,
      "componentType": 5125,
      "count": 2292,
      "max": [
        618
      ],
      "min": [
        0
      ],
      "type": "SCALAR"
    }
  ],
  "asset": {
    "extras": {
      "author": "Ashkelon (https://sketchfab.com/Ashkelon)",
      "license": "CC-BY-4.0 (http://creativecommons.org/licenses/by/4.0/)",
      "source": "https://sketchfab.com/3d-models/muscle-low-poly-011ebf82993745b89f48405820145c35",
      "title": "Muscle Low Poly"
    },
    "generator": "Sketchfab-9.31.1",
    "version": "2.0"
  },
  "bufferViews": [
    {
      "buffer": 0,
      "byteLength": 150660,
      "byteOffset": 0,
      "name": "floatBufferViews",
      "target": 34963
    },
    {
      "buffer": 0,
      "byteLength": 81376,
      "byteOffset": 150660,
      "byteStride": 8,
      "name": "floatBufferViews",
      "target": 34962
    },
    {
      "buffer": 0,
      "byteLength": 244128,
      "byteOffset": 232036,
      "byteStride": 12,
      "name": "floatBufferViews",
      "target": 34962
    },
    {
      "buffer": 0,
      "byteLength": 162752,
      "byteOffset": 476164,
      "byteStride": 16,
      "name": "floatBufferViews",
      "target": 34962
    }
  ],
  "buffers": [
    {
      "byteLength": 638916,
      "uri": "scene.bin"
    }
  ],
  "images": [
    {
      "uri": "textures/Scene_-_Root_baseColor.png"
    },
    {
      "uri": "textures/Scene_-_Root_metallicRoughness.png"
    },
    {
      "uri": "textures/Scene_-_Root_normal.png"
    }
  ],
  "materials": [
    {
      "doubleSided": true,
      "name": "Scene_-_Root",
      "normalTexture": {
        "index": 2,
        "scale": 1,
        "texCoord": 0
      },
      "occlusionTexture": {
        "index": 1,
        "strength": 1,
        "texCoord": 0
      },
      "pbrMetallicRoughness": {
        "baseColorFactor": [
          1,
          1,
          1,
          1
        ],
        "baseColorTexture": {
          "index": 0,
          "texCoord": 0
        },
        "metallicFactor": 1,
        "metallicRoughnessTexture": {
          "index": 1,
          "texCoord": 0
        },
        "roughnessFactor": 1
      }
    }
  ],
  "meshes": [
    {
      "name": "LowPolyMuscle.005__0",
      "primitives": [
        {
          "attributes": {
            "NORMAL": 1,
            "POSITION": 0,
            "TANGENT": 2,
            "TEXCOORD_0": 3
          },
          "indices": 4,
          "material": 0,
          "mode": 4
        }
      ]
    },
    {
      "name": "LowPolyMuscle__0",
      "primitives": [
        {
          "attributes": {
            "NORMAL": 6,
            "POSITION": 5,
            "TANGENT": 7,
            "TEXCOORD_0": 8
          },
          "indices": 9,
          "material": 0,
          "mode": 4
        }
      ]
    },
    {
      "name": "LowPolyMuscle.001__0",
      "primitives": [
        {
          "attributes": {
            "NORMAL": 11,
            "POSITION": 10,
            "TANGENT": 12,
            "TEXCOORD_0": 13
          },
          "indices": 14,
          "material": 0,
          "mode": 4
        }
      ]
    },
    {
      "name": "LowPolyMuscle.002__0",
      "primitives": [
        {
          "attributes": {
            "NORMAL": 16,
            "POSITION": 15,
            "TANGENT": 17,
            "TEXCOORD_0": 18
          },
          "indices": 19,
          "material": 0,
          "mode": 4
        }
      ]
    },
    {
      "name": "LowPolyMuscle.003__0",
      "primitives": [
        {
          "attributes": {
            "NORMAL": 21,
            "POSITION": 20,
            "TANGENT": 22,
            "TEXCOORD_0": 23
          },
          "indices": 24,
          "material": 0,
          "mode": 4
        }
      ]
    },
    {
      "name": "LowPolyMuscle.004__0",
      "primitives": [
        {
          "attributes": {
            "NORMAL": 26,
            "POSITION": 25,
            "TANGENT": 27,
            "TEXCOORD_0": 28
          },
          "indices": 29,
          "material": 0,
          "mode": 4
        }
      ]
    }
  ],
  "nodes": [
    {
      "children": [
        1
      ],
      "name": "RootNode (gltf orientation matrix)",
      "rotation": [
        -0.70710678118654746,
        -0,
        -0,
        0.70710678118654757
      ]
    },
    {
      "children": [
        2
      ],
      "name": "RootNode (model correction matrix)"
    },
    {
      "children": [
        3
      ],
      "matrix": [
        1,
        0,
        0,
        0,
        0,
        0,
        1,
        0,
        0,
        -1,
        0,
        0,
        0,
        0,
        0,
        1
      ],
      "name": "6a528710c9d043a487d965262dc1861f.fbx"
    },
    {
      "children": [
        4,
        6
      ],
      "name": "RootNode"
    },
    {
      "children": [
        5
      ],
      "matrix": [
        99.993777931438601,
        1.1158978406299207,
        -0.025940053688962884,
        0,
        2.4585331936467751e-07,
        -2.3239843891438925,
        -99.97298420413469,
        0,
        -1.1161992999047463,
        99.96677144331025,
        -2.3238399692802219,
        0,
        0.10676414519548416,
        63.315792083740234,
        9.0390291213989258,
        1
      ],
      "name": "LowPolyMuscle.005"
    },
    {
      "mesh": 0,
      "name": "LowPolyMuscle.005__0"
    },
    {
      "children": [
        7,
        8,
        10,
        12,
        14
      ],
      "matrix": [
        99.993777931438601,
        1.1158978406299207,
        -0.025940053688962884,
        0,
        2.4585331936467751e-07,
        -2.3239843891438925,
        -99.97298420413469,
        0,
        -1.1161992999047463,
        99.96677144331025,
        -2.3238399692802219,
        0,
        0.10676414519548416,
        63.315792083740234,
        9.0390291213989258,
        1
      ],
      "name": "LowPolyMuscle"
    },
    {
      "mesh": 1,
      "name": "LowPolyMuscle__0"
    },
    {
      "children": [
        9
      ],
      "matrix": [
        0.99993782223425587,
        1.7647129995173272e-09,
        -0.011161992833140061,
        0,
        0.00025939976135949823,
        0.99972980206036488,
        0.023238269417980843,
        0,
        0.01115897692668336,
        -0.023239719932586219,
        0.99966764109448136,
        0,
        0.892891526222229,
        -1.5403586626052856,
        -0.30937439203262329,
        1
      ],
      "name": "LowPolyMuscle.001"
    },
    {
      "mesh": 2,
      "name": "LowPolyMuscle.001__0"
    },
    {
      "children": [
        11
      ],
      "matrix": [
        0.99993782223425587,
        1.7647129995173272e-09,
        -0.011161992833140061,
        0,
        0.00025939976135949823,
        0.99972980206036488,
        0.023238269417980843,
        0,
        0.01115897692668336,
        -0.023239719932586219,
        0.99966764109448136,
        0,
        0.89372533559799194,
        1.673365592956543,
        -0.23467230796813965,
        1
      ],
      "name": "LowPolyMuscle.002"
    },
    {
      "mesh": 3,
      "name": "LowPolyMuscle.002__0"
    },
    {
      "children": [
        13
      ],
      "matrix": [
        -0.99993782234852968,
        -3.893901644398139e-07,
        0.011161982589228731,
        0,
        -0.00025901557432266199,
        -0.99972979467208456,
        -0.023238591551111014,
        0,
        0.011158975610942163,
        -0.023240037757396147,
        0.99966763372050271,
        0,
        -0.89578783512115479,
        -1.5403586626052856,
        -0.28940790891647339,
        1
      ],
      "name": "LowPolyMuscle.003"
    },
    {
      "mesh": 4,
      "name": "LowPolyMuscle.003__0"
    },
    {
      "children": [
        15
      ],
      "matrix": [
        -0.99993782234852968,
        -3.893901644398139e-07,
        0.011161982589228731,
        0,
        -0.00025901557432266199,
        -0.99972979467208456,
        -0.023238591551111014,
        0,
        0.011158975610942163,
        -0.023240037757396147,
        0.99966763372050271,
        0,
        -0.89495426416397095,
        1.6733657121658325,
        -0.21470582485198975,
        1
      ],
      "name": "LowPolyMuscle.004"
    },
    {
      "mesh": 5,
      "name": "LowPolyMuscle.004__0"
    }
  ],
  "samplers": [
    {
      "magFilter": 9729,
      "minFilter": 9987,
      "wrapS": 10497,
      "wrapT": 10497
    }
  ],
  "scene": 0,
  "scenes": [
    {
      "name": "OSG_Scene",
      "nodes": [
        0
      ]
    }
  ],
  "textures": [
    {
      "sampler": 0,
      "source": 0
    },
    {
      "sampler": 0,
      "source": 1
    },
    {
      "sampler": 0,
      "source": 2
    }
  ]
}

